<svg xmlns="http://www.w3.org/2000/svg" width="198" height="30" viewBox="0 0 198 30">
    <path fill="#333" fill-rule="evenodd" d="M48.713 13.235c.123-.618-.888-1.518-.919-1.61.054-.082.412-.525.609-.957.244-.55.33-.965.33-.965l-.052-.165s-.743-.06-1.44.112c-.603.153-.773.228-.773.228l-1.594-1.755-.34.046s-.348.674-.046 1.594c0 0-1.8 1.002-4.735 1.002 0-1.94-1.172-1.153-4.392-3.017-1.156-.66-.505-1.797-.505-1.797C28.662 3.825 20.086.034 20.086.034s-.327.48-.327.483c0 0 2.775 2.59 7.201 6.98l-.292.69c-2.41-1.17-3.647-2.716-3.647-2.716l-.312.4s1.715 4.399 5.064 7.943c3.351 3.543 6.024 3.254 6.024 3.254l.006.48c-7.348 0-10.969-6.202-10.969-6.202s-2.108.148-3.964.677c-1.854.53-2.73 1.152-2.73 1.152s-2.97 7.405-6.937 9.848C4.969 25.627 0 25.595 0 25.595v.34s6.268.65 10.283-1.983c3.48-2.282 5.056-5.734 5.056-5.734l.198.081s-.358 1.42-1.333 2.977c-.977 1.558-1.843 2.913-1.843 2.913s-.142.884-.181 1.745c-.04.863.015 1.981.115 2.23.102.245.98 1.14.98 1.14h1.703c.818 0-.538-1.3-.629-1.648-.09-.342.13-2.389.13-2.389s2.13-2.25 3.81-3.374c1.674-1.122 2.944-1.635 2.944-1.635l.12.228s-.435.207-1.332.864a18.888 18.888 0 0 0-1.438 1.163s-.156.499-.156 1.582c0 1.083-.081 1.485.328 1.948.409.464 2.572 3.26 2.572 3.26h1.376c.657 0 .947-1.275.947-1.275s-.765-.463-1.467-.463c0 0-1.128-1.954-1.206-2.198-.076-.24.41-1.447.92-2.313.553-.936 1.118-1.491 1.118-1.491s.474.17 1.07.227c.594.06 1.093.02 1.093.02 0-2.091 5.368-.34 5.368-.34s-.691.757-1.472 2.36c-.464.976-.57 1.352-.732 2-.147.575-.19.945-.19.945l1.496 2.64h2.782c.578 0 .815-1.156.815-1.156s-.779-.516-1.57-.516l-.458-1.25s.49-1.737 3.075-3.83c2.583-2.095 4.537-3.036 4.537-3.036l.29.575-1.57 2.436c3.514 1.847 4.85 6.763 4.85 6.763s1.948.014 2.83.014c.882 0 .774-1.83.774-1.83s-1.09-.531-2.034-.531l-2.451-6.277s-.09-.853-.027-1.604a5.991 5.991 0 0 1 .289-1.362s1.89-1.236 3.008-.44c1.122.802 1.751.83 1.751.83l.617-.36s-2.067-1.429-.541-2.155c1.106-.527 2.175.856 2.175.856.665-.78.578-1.273.578-1.273s-.849-1.054-.655-2.034zm145.502-.85l-3.676 6.098-3.613-6.098h-3.893l5.818 9.2v5.99h3.331V21.52L198 12.385h-3.785zm-15.465 5.23c0 1.28-.93 2.148-2.552 2.148h-3.375V15.4h3.31c1.623 0 2.617.739 2.617 2.17v.044zm3.373-.174v-.044c0-3.124-2.141-5.012-5.71-5.012h-6.92v15.19h3.33v-4.862h2.618l3.244 4.861h3.893l-3.698-5.425c1.924-.716 3.243-2.257 3.243-4.708zm-23.81 3.97h7.136V18.44h-7.137v-3.082h8.111v-2.972h-11.42v15.19h11.528V24.6h-8.219v-3.19zm-18.406-5.945h4.606v12.108h3.333V15.466h4.605v-3.081h-12.544v3.08zm-14.014 0h4.606v12.108h3.331V15.466h4.608v-3.081h-12.545v3.08zm-6.034 12.108h3.331v-15.19h-3.33v15.19zm-14.339 0h3.331v-5.88h7.224v-3.038h-7.224v-3.233h8.197v-3.038H105.52v15.19zM90.426 15.466h4.606v12.108h3.331V15.466h4.606v-3.081H90.426v3.08zm-5.645 5.62c0 2.409-1.233 3.646-3.266 3.646-2.032 0-3.265-1.281-3.265-3.754v-8.593h-3.331v8.68c0 4.47 2.486 6.749 6.553 6.749 4.066 0 6.64-2.257 6.64-6.858v-8.571h-3.331v8.702zm-16.069-1.063c0 2.604-1.859 4.73-4.542 4.73-2.68 0-4.585-2.17-4.585-4.773v-.044c0-2.604 1.861-4.73 4.543-4.73 2.681 0 4.584 2.169 4.584 4.774v.043zm-4.542-7.899c-4.67 0-8.067 3.537-8.067 7.856v.043c0 4.318 3.353 7.811 8.025 7.811 4.672 0 8.067-3.537 8.067-7.854v-.044c0-4.319-3.353-7.812-8.025-7.812z"/>
</svg>
