<svg xmlns="http://www.w3.org/2000/svg" width="200" height="30" viewBox="0 0 200 30">
    <path fill="#fff" fill-rule="evenodd" d="M49.205 13.213c.125-.62-.897-1.52-.928-1.612.055-.083.416-.525.615-.958.247-.55.334-.966.334-.966l-.053-.165s-.75-.06-1.455.112c-.608.153-.78.228-.78.228l-1.61-1.756-.343.046s-.352.675-.047 1.596c0 0-1.818 1.002-4.783 1.002 0-1.94-1.184-1.154-4.437-3.019-1.167-.66-.51-1.798-.51-1.798C28.952 3.795 20.29 0 20.29 0s-.33.48-.33.484c0 0 2.803 2.59 7.274 6.985l-.296.69c-2.433-1.171-3.683-2.718-3.683-2.718l-.315.401s1.732 4.402 5.115 7.949c3.385 3.545 6.085 3.256 6.085 3.256l.006.48c-7.422 0-11.08-6.207-11.08-6.207s-2.129.149-4.004.678c-1.872.531-2.757 1.153-2.757 1.153s-3 7.41-7.008 9.856C5.02 25.614.001 25.582.001 25.582v.34s6.33.65 10.386-1.985c3.515-2.283 5.108-5.738 5.108-5.738l.2.081s-.362 1.42-1.347 2.98a444.92 444.92 0 0 1-1.862 2.914s-.143.886-.182 1.747c-.042.864.014 1.983.116 2.231.103.246.99 1.141.99 1.141h1.72c.827 0-.544-1.301-.635-1.648-.091-.343.13-2.391.13-2.391s2.152-2.252 3.85-3.377c1.69-1.123 2.973-1.637 2.973-1.637l.122.228s-.44.208-1.346.865c-.903.662-1.453 1.165-1.453 1.165s-.157.498-.157 1.582-.082 1.487.33 1.95c.414.465 2.6 3.263 2.6 3.263h1.39c.662 0 .955-1.276.955-1.276s-.772-.463-1.48-.463c0 0-1.14-1.956-1.22-2.2-.076-.24.415-1.449.93-2.315.558-.937 1.129-1.493 1.129-1.493s.48.17 1.08.228c.6.06 1.105.02 1.105.02 0-2.093 5.422-.34 5.422-.34s-.698.757-1.487 2.361c-.469.977-.575 1.353-.74 2.002-.148.575-.192.945-.192.945l1.512 2.643h2.81c.584 0 .824-1.157.824-1.157s-.787-.516-1.586-.516l-.463-1.252s.494-1.738 3.106-3.832c2.609-2.097 4.582-3.038 4.582-3.038l.293.575-1.585 2.438c3.55 1.848 4.898 6.767 4.898 6.767s1.968.015 2.859.015.782-1.83.782-1.83-1.101-.533-2.054-.533l-2.477-6.282s-.09-.853-.026-1.605c.068-.754.291-1.363.291-1.363s1.909-1.237 3.038-.44c1.134.802 1.77.83 1.77.83l.623-.36s-2.088-1.43-.547-2.157c1.118-.527 2.197.856 2.197.856.672-.78.584-1.273.584-1.273s-.857-1.055-.662-2.035zm146.97-.852l-3.713 6.103-3.648-6.103h-3.932l5.876 9.207v5.994h3.365v-6.058l5.876-9.143h-3.823zm-15.62 5.234c0 1.28-.94 2.15-2.578 2.15h-3.409v-4.366h3.343c1.64 0 2.644.74 2.644 2.172v.044zm3.407-.174v-.044c0-3.126-2.163-5.016-5.767-5.016h-6.99v15.201h3.363v-4.864h2.644l3.277 4.864h3.932l-3.735-5.429c1.944-.716 3.276-2.259 3.276-4.712zm-24.051 3.974h7.209V18.42h-7.209v-3.084h8.193v-2.975h-11.536v15.201h11.644v-2.975h-8.301v-3.192zm-18.591-5.95h4.653v12.117h3.366V15.445h4.651V12.36h-12.67v3.084zm-14.156 0h4.653v12.117h3.365V15.445h4.654V12.36h-12.672v3.084zm-6.094 12.117h3.365V12.361h-3.365v15.201zm-14.484 0h3.365v-5.885h7.297v-3.04h-7.297v-3.235h8.28v-3.041h-11.645v15.201zM91.339 15.445h4.653v12.117h3.365V15.445h4.653V12.36H91.339v3.084zm-5.701 5.625c0 2.41-1.246 3.648-3.299 3.648s-3.299-1.282-3.299-3.757v-8.6h-3.364v8.687c0 4.473 2.511 6.754 6.619 6.754 4.107 0 6.707-2.259 6.707-6.863v-8.578h-3.364v8.709zm-16.231-1.065c0 2.606-1.878 4.734-4.589 4.734-2.707 0-4.63-2.17-4.63-4.777v-.044c0-2.605 1.879-4.733 4.588-4.733s4.63 2.17 4.63 4.777v.043zm-4.589-7.904c-4.717 0-8.148 3.54-8.148 7.861v.043c0 4.322 3.387 7.818 8.106 7.818 4.719 0 8.148-3.54 8.148-7.86v-.045c0-4.322-3.387-7.817-8.106-7.817z"/>
</svg>
